<svg version="1" xmlns="http://www.w3.org/2000/svg" width="1200" height="1200" viewBox="0 0 900.000000 900.000000"><path d="M424.9 13.4c-.2.2-4.7.7-9.9 1-5.2.4-10.6.9-12 1.1-1.4.2-5 .7-8 1-3 .3-6.4.7-7.5.9-1.1.2-4.1.6-6.6 1-9.1 1.3-28.7 5.2-33.4 6.6-1.6.5-4.1 1.1-5.5 1.4-9 1.5-47.4 14.2-60.5 20-44.9 19.8-73.9 37.2-108.9 65.4-12.6 10.1-45.7 42.3-54.2 52.7-2.7 3.3-5.4 6.6-6.1 7.3-3.4 3.6-18 23.2-25.5 34.2-19.4 28.5-36.1 61.2-48.1 94-3.8 10.4-10.4 30.7-11.2 34.5-.1.5-.7 3-1.4 5.5s-1.5 5.6-1.8 7c-.2 1.3-1.3 6.2-2.4 10.9-1.1 4.7-2.2 10.1-2.5 12-.3 2-.7 4.3-.9 5.1-.2.8-.7 3.7-1.1 6.5-.3 2.7-.8 5.8-1 6.9-.2 1-.6 4.4-1 7.5-.3 3.1-.8 6.9-1 8.6-2.6 20-2.5 72.9.1 93.5 3.1 24.4 5.2 36.5 9.6 55 3.3 13.8 3.2 13.1 9 31.5 12.1 38.3 31.7 78.4 54.7 112 8.7 12.7 16.1 22.7 19.7 26.9.6.6 3 3.6 5.5 6.6 5.9 7.3 12.4 14.5 23.9 26.4 28.2 29 60.8 54.1 97.5 75.1 28.1 16 55.5 27.5 93.6 39.3 11.6 3.6 32.7 8.4 51.4 11.6 6.6 1.2 28.8 3.7 38.6 4.5 10.6.8 63.8.7 67.5-.2 1.1-.3 5.2-.8 9-1.1 12.4-1.2 15.9-1.7 21.5-2.6 3-.5 7.1-1.2 9-1.5 18.9-3.1 48.5-10.8 68.9-18 35.5-12.4 72.4-31.1 103.1-52.3 8.3-5.7 24.4-17.7 27.7-20.7.6-.5 5.4-4.6 10.7-9 13.2-11 40.7-39.1 51.1-52 2.2-2.8 4.8-5.9 5.7-7 9.2-10.8 29.6-41.2 38.7-57.5 4.6-8.2 20.1-39.4 20.1-40.4 0-.3.9-2.5 1.9-4.9 5.7-12.3 18.7-50.7 20.6-60.9.2-1.1.7-2.8 1-3.8.7-2.1.5-1.2 3.9-18 2.6-13.3 2.7-13.6 5-30.5 2.4-18.3 3.1-29.9 3.1-56 0-32.4-1.1-46.3-6-74.5-.9-5.2-1.9-10.9-2.2-12.5-.2-1.7-1.3-6.8-2.5-11.5-1.1-4.7-2.1-9.2-2.3-10-2.6-11.5-12.2-40.4-18.7-56.5-7.6-18.6-23.1-49.2-33.1-65-19-30.2-37.3-53.1-62.7-78.6-26.8-27-50.2-45.6-82.6-65.4-13.1-8.1-39.1-21.6-52.9-27.4-5.5-2.3-10.9-4.7-12-5.2-8.9-4.1-47.9-16.5-58.5-18.5-1.4-.3-3.3-.7-4.2-1-1.8-.5-5.1-1.3-8.8-2-1.4-.2-4.7-.9-7.5-1.5-2.7-.5-6.6-1.2-8.5-1.5-1.9-.2-4.5-.7-5.8-1-2.8-.6-15.7-2.2-23.2-3-3-.3-7.3-.7-9.5-1-4.7-.6-60-1.5-60.6-1zM512 303.5c23.3 2.2 43.8 6 51.5 9.4 8.9 3.9 13.3 11.6 11.9 20.9-1.4 9.9-5.6 14.7-13.7 15.8l-4.5.6-.7 5.7c-2 17.4-9 66.4-12.1 84-16.1 94.1-42.4 154.2-78.9 180.7-23.3 16.9-58.9 19.1-81 4.9-9.7-6.3-17.1-15.5-21.5-27-3.2-8.3-4-27.7-1.6-39.6 4-19.7 13.5-36.5 30.1-53.4 22.2-22.5 53.9-42.3 92.1-57.5l13.1-5.2 1.7-11.1c2.3-15.8 10.6-86 10.2-86.4-1.3-1.4-28.8-2.4-49.1-2-32.5.8-49.4 3.4-64.1 10.2-8.9 4-14.6 9.1-18 16-5 10.3-4.2 20.2 2.6 34.7 4 8.3 3.9 12.5-.3 17.9-8.4 11.1-26.4 13-34.2 3.7-11.3-13.4-15.4-42.9-8.8-63.3 10.4-32.4 42.5-51.5 97.9-58 16-1.9 20.2-2.1 43.9-2.3 10.5-.1 25.5.5 33.5 1.3z"/><path d="M475.4 487.9c-20.7 10.3-34 19.6-46.5 32-16.1 16.1-23.4 30.6-24.6 48.7-1.4 20.2 6.8 30.5 23.2 29.2 7.8-.7 13.3-3.6 21-11.3 13.3-13.3 23.8-35 32.9-68.1 3.4-12.1 8.8-36.5 8.3-37-.2-.3-6.7 2.7-14.3 6.5z"/></svg>